<svg xmlns="http://www.w3.org/2000/svg" viewBox="0 0 800 400">
  <defs>
    <linearGradient id="g1" x1="0" y1="0" x2="1" y2="1">
      <stop offset="0%" stop-color="#8B5E3C"/>
      <stop offset="100%" stop-color="#C4956A"/>
    </linearGradient>
  </defs>
  <rect width="800" height="400" fill="url(#g1)"/>
  <!-- Decorative arch pattern -->
  <path d="M 100,400 L 100,200 Q 100,100 250,100 Q 400,100 400,100 Q 400,100 550,100 Q 700,100 700,200 L 700,400" fill="none" stroke="rgba(255,255,255,0.15)" stroke-width="2"/>
  <path d="M 150,400 L 150,220 Q 150,140 250,140 Q 350,140 400,140 Q 450,140 550,140 Q 650,140 650,220 L 650,400" fill="none" stroke="rgba(255,255,255,0.1)" stroke-width="1.5"/>
  <!-- Icon: open book -->
  <g transform="translate(400,180)" fill="none" stroke="white" stroke-width="3" stroke-linecap="round">
    <path d="M -60,-20 Q 0,-10 0,-60 Q 0,-10 60,-20" opacity="0.9"/>
    <path d="M -60,-20 L -60,40 Q 0,50 0,50" opacity="0.7"/>
    <path d="M 60,-20 L 60,40 Q 0,50 0,50" opacity="0.7"/>
    <line x1="-30" y1="-5" x2="30" y2="-5" opacity="0.4"/>
    <line x1="-30" y1="10" x2="30" y2="10" opacity="0.4"/>
    <line x1="-30" y1="25" x2="30" y2="25" opacity="0.4"/>
  </g>
</svg>
